<svg xmlns="http://www.w3.org/2000/svg" viewBox="0 0 20 20" fill="#A6A299"><path d="M11.666 9.375 10.7 7.444 13.172 2.5h.265C14.4 2.5 15 3.097 15 4.063c0 .271-.044.456-.166.7l-2.306 4.612zm4.584 5.644a2.483 2.483 0 0 1-4.703 1.11L10 13.033l-1.547 3.094a2.483 2.483 0 0 1-4.703-1.11 4.4 4.4 0 0 1 4.347-4.39L5.163 4.763a1.4 1.4 0 0 1-.166-.7c0-.963.597-1.563 1.562-1.563h.266l4.062 8.125h.966a4.4 4.4 0 0 1 4.394 4.394zM8.172 12.5h-.028a2.52 2.52 0 0 0-2.519 2.519.607.607 0 0 0 1.15.268L8.169 12.5zm6.203 2.519a2.52 2.52 0 0 0-2.519-2.519h-.028l1.394 2.787a.608.608 0 0 0 1.15-.268z" fill="#A6A299"></path></svg>