<?xml version="1.0" encoding="UTF-8"?>
<svg xmlns="http://www.w3.org/2000/svg" width="1500" height="880" viewBox="0 0 1500 880">
  <defs>
    <marker id="arrow" markerWidth="12" markerHeight="12" refX="10" refY="6" orient="auto" markerUnits="strokeWidth">
      <path d="M2,2 L10,6 L2,10 Z" fill="#2563eb"/>
    </marker>
    <filter id="shadow" x="-10%" y="-10%" width="120%" height="130%">
      <feDropShadow dx="0" dy="4" stdDeviation="5" flood-color="#0f172a" flood-opacity="0.12"/>
    </filter>
  </defs>
  <rect width="100%" height="100%" fill="#f7fafc"/>
  <text x="40" y="46" font-family="Arial, Microsoft YaHei, sans-serif" font-size="28" font-weight="800" fill="#1f2933" text-anchor="start"><tspan x="40" dy="0">BCTU模块全景</tspan></text>
  
  <g filter="url(#shadow)">
    <g>
    <rect x="60" y="125" width="220" height="100" rx="8" fill="#ffffff" stroke="#9fb3c8" stroke-width="1.4"/>
    <rect x="60" y="125" width="7" height="100" rx="8" fill="#0891b2"/>
    <text x="170" y="167" font-family="Arial, Microsoft YaHei, sans-serif" font-size="20" font-weight="700" fill="#1f2933" text-anchor="middle"><tspan x="170" dy="0">eMIOS0/1/2</tspan></text>
    <text x="170" y="199" font-family="Arial, Microsoft YaHei, sans-serif" font-size="15" font-weight="400" fill="#52616b" text-anchor="middle"><tspan x="170" dy="0">定时器通道输出</tspan><tspan x="170" dy="18">触发源0..22/24..46/</tspan><tspan x="170" dy="18">48..70</tspan></text>
  </g>
    <g>
    <rect x="60" y="280" width="220" height="100" rx="8" fill="#ffffff" stroke="#9fb3c8" stroke-width="1.4"/>
    <rect x="60" y="280" width="7" height="100" rx="8" fill="#7c3aed"/>
    <text x="170" y="322" font-family="Arial, Microsoft YaHei, sans-serif" font-size="20" font-weight="700" fill="#1f2933" text-anchor="middle"><tspan x="170" dy="0">TRGMUX</tspan></text>
    <text x="170" y="354" font-family="Arial, Microsoft YaHei, sans-serif" font-size="15" font-weight="400" fill="#52616b" text-anchor="middle"><tspan x="170" dy="0">任意输入可路由到</tspan><tspan x="170" dy="18">BCTU_TRG23/47/71</tspan></text>
  </g>
    <g>
    <rect x="60" y="435" width="220" height="100" rx="8" fill="#ffffff" stroke="#9fb3c8" stroke-width="1.4"/>
    <rect x="60" y="435" width="7" height="100" rx="8" fill="#d97706"/>
    <text x="170" y="477" font-family="Arial, Microsoft YaHei, sans-serif" font-size="20" font-weight="700" fill="#1f2933" text-anchor="middle"><tspan x="170" dy="0">CPU软件触发</tspan></text>
    <text x="170" y="509" font-family="Arial, Microsoft YaHei, sans-serif" font-size="15" font-weight="400" fill="#52616b" text-anchor="middle"><tspan x="170" dy="0">SFTRGR1/2/3</tspan><tspan x="170" dy="18">写1发起一次请求</tspan></text>
  </g>
    <g>
    <rect x="360" y="120" width="380" height="420" rx="8" fill="#ffffff" stroke="#9fb3c8" stroke-width="1.4"/>
    <rect x="360" y="120" width="7" height="420" rx="8" fill="#2563eb"/>
    <text x="550" y="322" font-family="Arial, Microsoft YaHei, sans-serif" font-size="30" font-weight="700" fill="#1f2933" text-anchor="middle"><tspan x="550" dy="0">BCTU</tspan></text>
    <text x="550" y="354" font-family="Arial, Microsoft YaHei, sans-serif" font-size="15" font-weight="400" fill="#52616b" text-anchor="middle"><tspan x="550" dy="0">72路触发锁存+TRGCFG</tspan><tspan x="550" dy="18">每个ADC一套优先级选择</tspan><tspan x="550" dy="18">可发单次转换或CL转换列表</tspan><tspan x="550" dy="18">结果写ADCDR或FIFO</tspan></text>
  </g>
    <g>
    <rect x="850" y="110" width="180" height="90" rx="8" fill="#ffffff" stroke="#9fb3c8" stroke-width="1.4"/>
    <rect x="850" y="110" width="7" height="90" rx="8" fill="#16a34a"/>
    <text x="940" y="147" font-family="Arial, Microsoft YaHei, sans-serif" font-size="20" font-weight="700" fill="#1f2933" text-anchor="middle"><tspan x="940" dy="0">ADC0</tspan></text>
    <text x="940" y="179" font-family="Arial, Microsoft YaHei, sans-serif" font-size="15" font-weight="400" fill="#52616b" text-anchor="middle"><tspan x="940" dy="0">bctu_trigger</tspan><tspan x="940" dy="18">channel+push</tspan></text>
  </g>
    <g>
    <rect x="850" y="255" width="180" height="90" rx="8" fill="#ffffff" stroke="#9fb3c8" stroke-width="1.4"/>
    <rect x="850" y="255" width="7" height="90" rx="8" fill="#16a34a"/>
    <text x="940" y="292" font-family="Arial, Microsoft YaHei, sans-serif" font-size="20" font-weight="700" fill="#1f2933" text-anchor="middle"><tspan x="940" dy="0">ADC1</tspan></text>
    <text x="940" y="324" font-family="Arial, Microsoft YaHei, sans-serif" font-size="15" font-weight="400" fill="#52616b" text-anchor="middle"><tspan x="940" dy="0">bctu_trigger</tspan><tspan x="940" dy="18">channel+push</tspan></text>
  </g>
    <g>
    <rect x="850" y="400" width="180" height="90" rx="8" fill="#ffffff" stroke="#9fb3c8" stroke-width="1.4"/>
    <rect x="850" y="400" width="7" height="90" rx="8" fill="#16a34a"/>
    <text x="940" y="437" font-family="Arial, Microsoft YaHei, sans-serif" font-size="20" font-weight="700" fill="#1f2933" text-anchor="middle"><tspan x="940" dy="0">ADC2</tspan></text>
    <text x="940" y="469" font-family="Arial, Microsoft YaHei, sans-serif" font-size="15" font-weight="400" fill="#52616b" text-anchor="middle"><tspan x="940" dy="0">bctu_trigger</tspan><tspan x="940" dy="18">channel+push</tspan></text>
  </g>
    <g>
    <rect x="1130" y="120" width="240" height="100" rx="8" fill="#ffffff" stroke="#9fb3c8" stroke-width="1.4"/>
    <rect x="1130" y="120" width="7" height="100" rx="8" fill="#2563eb"/>
    <text x="1250" y="162" font-family="Arial, Microsoft YaHei, sans-serif" font-size="20" font-weight="700" fill="#1f2933" text-anchor="middle"><tspan x="1250" dy="0">ADCDR0..2</tspan></text>
    <text x="1250" y="194" font-family="Arial, Microsoft YaHei, sans-serif" font-size="15" font-weight="400" fill="#52616b" text-anchor="middle"><tspan x="1250" dy="0">CPU读结果</tspan><tspan x="1250" dy="18">TRG_SRC/CH/LIST/</tspan><tspan x="1250" dy="18">LAST/DATA</tspan></text>
  </g>
    <g>
    <rect x="1130" y="310" width="250" height="115" rx="8" fill="#ffffff" stroke="#9fb3c8" stroke-width="1.4"/>
    <rect x="1130" y="310" width="7" height="115" rx="8" fill="#dc2626"/>
    <text x="1255" y="359.5" font-family="Arial, Microsoft YaHei, sans-serif" font-size="20" font-weight="700" fill="#1f2933" text-anchor="middle"><tspan x="1255" dy="0">FIFO1/FIFO2</tspan></text>
    <text x="1255" y="391.5" font-family="Arial, Microsoft YaHei, sans-serif" font-size="15" font-weight="400" fill="#52616b" text-anchor="middle"><tspan x="1255" dy="0">FIFO1:16words</tspan><tspan x="1255" dy="18">FIFO2:8words</tspan><tspan x="1255" dy="18">可IRQ/DMA</tspan></text>
  </g>
    <g>
    <rect x="1130" y="505" width="250" height="110" rx="8" fill="#ffffff" stroke="#9fb3c8" stroke-width="1.4"/>
    <rect x="1130" y="505" width="7" height="110" rx="8" fill="#d97706"/>
    <text x="1255" y="552" font-family="Arial, Microsoft YaHei, sans-serif" font-size="20" font-weight="700" fill="#1f2933" text-anchor="middle"><tspan x="1255" dy="0">DMA/IRQ</tspan></text>
    <text x="1255" y="584" font-family="Arial, Microsoft YaHei, sans-serif" font-size="15" font-weight="400" fill="#52616b" text-anchor="middle"><tspan x="1255" dy="0">NDATA/DATAOVR</tspan><tspan x="1255" dy="18">LIST_LAST/WM</tspan><tspan x="1255" dy="18">OVR/UNDR</tspan></text>
  </g>
  </g>
  <g>
    <line x1="280" y1="175" x2="360" y2="205" stroke="#2563eb" stroke-width="2.5"  marker-end="url(#arrow)"/>
    <text x="320" y="182" font-family="Arial, Microsoft YaHei, sans-serif" font-size="14" font-weight="500" fill="#52616b" text-anchor="middle"><tspan x="320" dy="0">硬触发</tspan></text>
  </g>
  <g>
    <line x1="280" y1="330" x2="360" y2="330" stroke="#2563eb" stroke-width="2.5"  marker-end="url(#arrow)"/>
    <text x="320" y="322" font-family="Arial, Microsoft YaHei, sans-serif" font-size="14" font-weight="500" fill="#52616b" text-anchor="middle"><tspan x="320" dy="0">复用触发</tspan></text>
  </g>
  <g>
    <line x1="280" y1="485" x2="360" y2="455" stroke="#2563eb" stroke-width="2.5"  marker-end="url(#arrow)"/>
    <text x="320" y="462" font-family="Arial, Microsoft YaHei, sans-serif" font-size="14" font-weight="500" fill="#52616b" text-anchor="middle"><tspan x="320" dy="0">软触发</tspan></text>
  </g>
  <g>
    <line x1="740" y1="205" x2="850" y2="155" stroke="#2563eb" stroke-width="2.5"  marker-end="url(#arrow)"/>
    <text x="795" y="172" font-family="Arial, Microsoft YaHei, sans-serif" font-size="14" font-weight="500" fill="#52616b" text-anchor="middle"><tspan x="795" dy="0">ADC_SEL0</tspan></text>
  </g>
  <g>
    <line x1="740" y1="330" x2="850" y2="300" stroke="#2563eb" stroke-width="2.5"  marker-end="url(#arrow)"/>
    <text x="795" y="307" font-family="Arial, Microsoft YaHei, sans-serif" font-size="14" font-weight="500" fill="#52616b" text-anchor="middle"><tspan x="795" dy="0">ADC_SEL1</tspan></text>
  </g>
  <g>
    <line x1="740" y1="455" x2="850" y2="445" stroke="#2563eb" stroke-width="2.5"  marker-end="url(#arrow)"/>
    <text x="795" y="442" font-family="Arial, Microsoft YaHei, sans-serif" font-size="14" font-weight="500" fill="#52616b" text-anchor="middle"><tspan x="795" dy="0">ADC_SEL2</tspan></text>
  </g>
  <g>
    <line x1="1030" y1="155" x2="1130" y2="170" stroke="#2563eb" stroke-width="2.5"  marker-end="url(#arrow)"/>
    <text x="1080" y="154.5" font-family="Arial, Microsoft YaHei, sans-serif" font-size="14" font-weight="500" fill="#52616b" text-anchor="middle"><tspan x="1080" dy="0">结果直达</tspan></text>
  </g>
  <g>
    <line x1="1030" y1="310" x2="1130" y2="365" stroke="#2563eb" stroke-width="2.5"  marker-end="url(#arrow)"/>
    
  </g>
  <g>
    <line x1="1255" y1="425" x2="1255" y2="505" stroke="#2563eb" stroke-width="2.5"  marker-end="url(#arrow)"/>
    
  </g>
  <g>
    <line x1="1255" y1="220" x2="1255" y2="505" stroke="#2563eb" stroke-width="2.5" stroke-dasharray="7 7" marker-end="url(#arrow)"/>
    
  </g>
  <g>
    <rect x="370" y="590" width="132" height="32" rx="16" fill="#e0f2fe" stroke="#38bdf8"/>
    <text x="436" y="611" font-family="Arial, Microsoft YaHei, sans-serif" font-size="14" font-weight="700" fill="#1f2933" text-anchor="middle"><tspan x="436" dy="0">TRGCFG_0..71</tspan></text>
  </g>
  <g>
    <rect x="530" y="590" width="141" height="32" rx="16" fill="#fef3c7" stroke="#f59e0b"/>
    <text x="600.5" y="611" font-family="Arial, Microsoft YaHei, sans-serif" font-size="14" font-weight="700" fill="#1f2933" text-anchor="middle"><tspan x="600.5" dy="0">LISTCHR_0..15</tspan></text>
  </g>
  <g>
    <rect x="690" y="590" width="87" height="32" rx="16" fill="#dcfce7" stroke="#22c55e"/>
    <text x="733.5" y="611" font-family="Arial, Microsoft YaHei, sans-serif" font-size="14" font-weight="700" fill="#1f2933" text-anchor="middle"><tspan x="733.5" dy="0">MCR/MSR</tspan></text>
  </g>
  <g>
    <rect x="830" y="590" width="159" height="32" rx="16" fill="#f3e8ff" stroke="#a855f7"/>
    <text x="909.5" y="611" font-family="Arial, Microsoft YaHei, sans-serif" font-size="14" font-weight="700" fill="#1f2933" text-anchor="middle"><tspan x="909.5" dy="0">WRPROT+SFTRGR</tspan></text>
  </g>
  <text x="90" y="740" font-family="Arial, Microsoft YaHei, sans-serif" font-size="24" font-weight="700" fill="#1f2933" text-anchor="start"><tspan x="90" dy="0">一句话：BCTU是“定时器/软件事件-&gt;指定ADC通道-&gt;结果/中断/DMA”的硬件调度器。</tspan></text>

</svg>