<?xml version="1.0" encoding="UTF-8"?>
<svg xmlns="http://www.w3.org/2000/svg" width="1450" height="572" viewBox="0 0 1450 572">
  <defs>
    <marker id="arrow" markerWidth="12" markerHeight="12" refX="10" refY="6" orient="auto" markerUnits="strokeWidth">
      <path d="M2,2 L10,6 L2,10 Z" fill="#2563eb"/>
    </marker>
    <filter id="shadow" x="-10%" y="-10%" width="120%" height="130%">
      <feDropShadow dx="0" dy="4" stdDeviation="5" flood-color="#0f172a" flood-opacity="0.12"/>
    </filter>
  </defs>
  <rect width="100%" height="100%" fill="#f7fafc"/>
  
  
      <rect x="0" y="0" width="1450" height="572" fill="#0b1220"/>
      <rect x="0" y="0" width="1450" height="82" fill="#111827"/>
      <text x="34" y="36" font-family="Arial, Microsoft YaHei, sans-serif" font-size="24" font-weight="800" fill="#f8fafc" text-anchor="start"><tspan x="34" dy="0">本项目BCTU触发矩阵</tspan></text>
      <text x="34" y="66" font-family="Arial, Microsoft YaHei, sans-serif" font-size="15" font-weight="500" fill="#cbd5e1" text-anchor="start"><tspan x="34" dy="0">从Adc.xdm与Bctu_Ip_PBcfg.c对齐整理</tspan></text>
      <g font-family="Consolas, 'Courier New', monospace" font-size="17" fill="#d1d5db">
        <text x="34" y="116" fill="#64748b"> 1</text><text x="82" y="116">Trig  Source          EB channel                         Generated channel ID</text><text x="34" y="142" fill="#64748b"> 2</text><text x="82" y="142">1     BCTU_EMIOS_0_1  Adc0Channel_PTE15_V_M_Pos          3</text><text x="34" y="168" fill="#64748b"> 3</text><text x="82" y="168">2     BCTU_EMIOS_0_2  Adc0Channel_PTA9_IVV               7</text><text x="34" y="194" fill="#64748b"> 4</text><text x="82" y="194">3     BCTU_EMIOS_0_3  Adc0Channel_PTA1_KL15              33</text><text x="34" y="220" fill="#64748b"> 5</text><text x="82" y="220">4     BCTU_EMIOS_0_4  Adc0Channel_PTA7_MOS_TEMP1         35</text><text x="34" y="246" fill="#64748b"> 6</text><text x="82" y="246">5     BCTU_EMIOS_0_5  Adc0Channel_PTB0_VBAT2             38</text><text x="34" y="272" fill="#64748b"> 7</text><text x="82" y="272">6     BCTU_EMIOS_0_6  Adc0Channel_PTB1_PS_OUT2           39</text><text x="34" y="298" fill="#64748b"> 8</text><text x="82" y="298">7     BCTU_EMIOS_0_7  Adc0Channel_PTC11_VBAT1            41</text><text x="34" y="324" fill="#64748b"> 9</text><text x="82" y="324">8     BCTU_EMIOS_0_8  Adc0Channel_PTA6_PS_OUT1           42</text><text x="34" y="350" fill="#64748b">10</text><text x="82" y="350">9     BCTU_EMIOS_0_9  Adc0Channel_PTC25_RTC              44</text><text x="34" y="376" fill="#64748b">11</text><text x="82" y="376">10    BCTU_EMIOS_0_10 Adc0Channel_PTC26_CAN1_INH         45</text><text x="34" y="402" fill="#64748b">12</text><text x="82" y="402">13    BCTU_EMIOS_0_13 Adc0Channel_PTD21_HeatingCurrent   47</text><text x="34" y="428" fill="#64748b">13</text><text x="82" y="428">15    BCTU_EMIOS_0_15 Adc1Channel_PTD27_KL30_M           45</text><text x="34" y="454" fill="#64748b">14</text><text x="82" y="454">16    BCTU_EMIOS_0_16 Adc1Channel_PTD28_ENV_TEMP2        46</text><text x="34" y="480" fill="#64748b">15</text><text x="82" y="480">17    BCTU_EMIOS_0_17 Adc1Channel_PTD29_Safe_switch      47</text><text x="34" y="506" fill="#64748b">16</text><text x="82" y="506">18    BCTU_EMIOS_0_18 Adc1Channel_PTB15_Sup5vRTC         35</text>
      </g>
    
</svg>